# xmcd
#
# Track frame offsets:
#	150
#	21875
#	41025
#	60280
#	77767
#	106180
#	128412
#
# Disc length: 2030 seconds
#
# Revision: 1
# Processed by: cddbd v1.5PL3 Copyright (c) Steve Scherf et al.
# Submitted via: CDex 1.50Beta5
#
DISCID=4907ec07
DTITLE=ribbon - R753
DYEAR=1900
DGENRE=Pop
TTITLE0=ゆっくりと好き
TTITLE1=気になるあなた
TTITLE2=きっと忘れない
TTITLE3=変な愛のカタチ
TTITLE4=それは言わない約束
TTITLE5=さよならが終わるまで
TTITLE6=夢見るように出逢えたら
EXTD=
EXTT0=
EXTT1=
EXTT2=
EXTT3=
EXTT4=
EXTT5=
EXTT6=
PLAYORDER=
